<?xml version="1.0" encoding="UTF-8"?>
<!-- Generator: visioncortex VTracer 0.6.3 -->
<svg version="1.1" xmlns="http://www.w3.org/2000/svg" width="1280" height="1280">
<path d="M0 0 C422.4 0 844.8 0 1280 0 C1280 422.4 1280 844.8 1280 1280 C857.6 1280 435.2 1280 0 1280 C0 857.6 0 435.2 0 0 Z " fill="#EEEFE4" transform="translate(0,0)"/>
<path d="M0 0 C3.83 2.35 5.47 5.58 7.39 9.54 C8.39 11.71 8.39 11.71 10.44 13.56 C14.02 13.73 14.02 13.73 17.44 13.56 C17.44 14.22 17.44 14.88 17.44 15.56 C22.06 13.9 26.46 12.08 30.88 9.94 C35.9 7.65 39.96 6.78 45.44 6.56 C48.17 6.42 50.9 6.28 53.62 6.12 C54.72 6.07 54.72 6.07 55.84 6.01 C61.79 5.67 67.6 4.92 73.48 3.96 C76.19 3.6 78.71 3.41 81.44 3.56 C81.77 3.89 82.1 4.22 82.44 4.56 C86.06 4.86 88.31 4.41 91.44 2.56 C92.24 3.37 92.24 3.37 93.06 4.19 C95.46 5.94 95.46 5.94 98.62 4.81 C101.29 3.83 101.29 3.83 102.44 2.56 C110.29 2.22 116.13 4.5 122.91 8.29 C126.42 10.06 128.78 9.57 132.44 8.56 C136.05 12.56 137.75 15.39 139.44 20.56 C142.86 21.7 145.52 21.66 149.12 21.62 C150.3 21.62 151.48 21.61 152.7 21.6 C154.05 21.58 154.05 21.58 155.44 21.56 C155.77 20.57 156.1 19.58 156.44 18.56 C157.36 18.49 157.36 18.49 158.3 18.41 C159.51 18.3 159.51 18.3 160.75 18.19 C161.55 18.12 162.35 18.05 163.18 17.98 C165.71 17.67 165.71 17.67 168.44 15.56 C169.92 15.1 169.92 15.1 171.44 14.62 C174.41 13.84 174.41 13.84 175.87 12 C177.44 10.56 177.44 10.56 179.35 10.34 C180.06 10.39 180.77 10.45 181.5 10.5 C186.63 10.68 191.52 10.07 196.44 8.56 C197.1 7.9 197.76 7.24 198.44 6.56 C199.14 7.06 199.84 7.55 200.56 8.06 C203.81 9.76 205.83 9.81 209.44 9.56 C209.77 8.57 210.1 7.58 210.44 6.56 C212.42 7.06 212.42 7.06 214.44 7.56 C214.44 8.22 214.44 8.88 214.44 9.56 C215.94 9.71 215.94 9.71 217.47 9.86 C224.62 10.63 230.45 11.34 236.44 15.56 C238.08 16.53 239.73 17.49 241.38 18.44 C244.53 20.33 247.48 22.3 250.38 24.56 C255.74 28.68 261.69 31.62 267.68 34.72 C269.33 35.58 270.99 36.44 272.65 37.3 C274.3 38.17 275.96 39.02 277.62 39.87 C289.65 46.12 289.65 46.12 293.31 51.12 C296.8 55.13 301.66 56.47 306.52 58.38 C311.78 60.68 314.72 63.89 318.37 68.27 C320.43 70.56 322.52 72.3 325 74.12 C330.71 78.37 335.3 83.15 338.44 89.56 C338.95 90.06 339.47 90.55 340 91.06 C341.7 92.84 342.03 94.17 342.44 96.56 C343.1 96.56 343.76 96.56 344.44 96.56 C345.44 98.85 346.44 101.14 347.44 103.44 C347.72 104.09 348.01 104.74 348.3 105.41 C350.44 110.34 350.44 110.34 350.44 112.56 C351.1 112.56 351.76 112.56 352.44 112.56 C353.7 114.43 353.7 114.43 355.12 117 C357.16 120.51 359.25 123.73 361.81 126.88 C375.57 144.17 386.61 166.83 390.31 188.62 C391 192.38 392.2 195.18 394.06 198.5 C398.61 207.2 396.33 215.96 394.57 225.18 C393.79 229.34 393.23 233.39 393 237.62 C392.7 242.68 391.95 247.53 391.04 252.5 C388.45 266.82 387.39 281 386.67 295.51 C386.44 298.58 385.96 301.53 385.44 304.56 C385.31 305.92 385.2 307.28 385.12 308.65 C385.06 309.7 385.06 309.7 384.99 310.78 C384.94 311.85 384.94 311.85 384.88 312.94 C384.81 314.04 384.81 314.04 384.74 315.17 C384.64 316.97 384.54 318.76 384.44 320.56 C382.13 321.22 379.82 321.88 377.44 322.56 C377.3 323.58 377.17 324.59 377.04 325.63 C376.86 326.98 376.68 328.34 376.5 329.69 C376.41 330.35 376.33 331.02 376.24 331.7 C375.71 335.67 375.12 339.62 374.44 343.56 C375.18 344.08 375.92 344.59 376.69 345.12 C379.48 347.6 380.77 349.61 382.47 352.84 C383.49 354.77 383.49 354.77 385.44 357 C392.97 366.65 394.99 378.61 395.44 390.56 C395.49 391.73 395.49 391.73 395.55 392.92 C396.11 405.31 395.12 416.17 391.63 428.08 C389.45 435.7 388.56 443.04 391.44 450.56 C392.36 452.22 393.29 453.88 394.24 455.52 C401.77 468.52 405.83 485.53 403.44 500.56 C401.15 506.24 397.81 510.34 393.44 514.56 C392.96 515.04 392.49 515.51 392 516 C383.19 524.81 383.19 524.81 377.07 526.37 C375.78 526.71 374.49 527.05 373.2 527.39 C371.16 527.91 369.13 528.44 367.09 528.95 C365.13 529.45 363.16 529.97 361.2 530.49 C360.02 530.79 358.85 531.1 357.64 531.41 C354.24 532.63 352.23 534.32 349.44 536.56 C348.12 536.56 346.8 536.56 345.44 536.56 C345.21 537.14 344.98 537.72 344.75 538.31 C343.44 540.56 343.44 540.56 341 542.5 C335.59 546.85 335.03 551.44 333.96 558 C333.34 561.04 332.16 562.98 330.44 565.56 C329.86 567.03 329.3 568.51 328.75 570 C326.97 574.56 324.82 578.8 322.44 583.06 C322.11 583.67 321.77 584.29 321.43 584.92 C319.5 588.3 318.07 590.13 314.44 591.56 C313.35 593.5 313.35 593.5 312.44 595.56 C310.05 598.57 307.98 599.12 304.25 599.75 C302.9 599.99 302.9 599.99 301.52 600.23 C300.83 600.34 300.15 600.45 299.44 600.56 C299.42 601.17 299.41 601.77 299.39 602.39 C299.35 603.19 299.3 603.99 299.25 604.81 C299.22 605.6 299.18 606.39 299.14 607.2 C298.16 610.5 296.11 611.46 293.44 613.56 C291.46 616.65 291.46 616.65 289.81 620.06 C285.89 627.79 285.89 627.79 283.44 630.56 C282.78 630.56 282.12 630.56 281.44 630.56 C278.63 645.3 281.41 659.72 283.89 674.3 C284.39 677.3 284.87 680.31 285.35 683.32 C287.72 697.86 290.75 713.34 297.44 726.56 C297.76 727.99 298.02 729.43 298.25 730.88 C299.66 738.46 301.98 746.65 305.44 753.56 C305.52 754.57 305.6 755.58 305.69 756.62 C306.1 759.84 307.14 761.99 308.81 764.75 C311.97 770.07 313.12 775.57 314.44 781.56 C315.34 785.23 316.4 788.49 318.12 791.88 C318.56 792.76 318.99 793.65 319.44 794.56 C319.11 795.22 318.78 795.88 318.44 796.56 C321.34 797.82 323.23 798.56 326.44 798.56 C335.54 798.73 335.54 798.73 338.88 801.81 C339.72 802.72 340.57 803.63 341.44 804.56 C343.12 805.34 344.84 806.07 346.56 806.75 C352.43 809.24 356.48 812.85 361.03 817.26 C363.33 819.57 363.33 819.57 365.75 821.24 C366.59 821.9 366.59 821.9 367.44 822.56 C367.44 823.22 367.44 823.88 367.44 824.56 C367.97 824.81 368.51 825.06 369.06 825.31 C375.04 828.46 380.13 832.65 385.31 836.94 C394.17 844.95 394.17 844.95 404.44 850.56 C405.91 852.13 405.91 852.13 407.5 854.12 C412.68 860.23 419.02 864.79 425.44 869.5 C429.57 872.56 433.33 876 437.12 879.47 C438.91 881.09 440.72 882.59 442.62 884.06 C445.78 886.86 448.05 889.92 450.57 893.29 C453 896.24 455.78 898.55 458.7 901 C460.86 902.94 462.23 904.93 463.44 907.56 C463.44 908.22 463.44 908.88 463.44 909.56 C464.01 909.79 464.58 910.02 465.16 910.25 C472.75 914.63 478.59 924.85 482.44 932.56 C482.44 933.22 482.44 933.88 482.44 934.56 C483.1 934.56 483.76 934.56 484.44 934.56 C484.65 935.24 484.85 935.92 485.07 936.62 C487.48 943.9 490.76 949.51 495.44 955.56 C495.96 956.24 496.48 956.92 497.02 957.62 C498.13 959.06 499.25 960.48 500.37 961.91 C508.1 971.83 515.5 981.91 522.38 992.45 C523.55 994.22 524.76 995.98 526.05 997.66 C527.69 999.92 528.81 1002.23 530 1004.75 C532.17 1009.21 534.54 1013.44 537.13 1017.67 C542.06 1025.74 545.69 1033.69 548.76 1042.63 C549.88 1045.81 551.12 1048.93 552.38 1052.06 C552.62 1052.68 552.87 1053.29 553.12 1053.92 C554.68 1057.8 556.34 1061.63 558.05 1065.44 C563.53 1077.71 568 1090.21 571.38 1103.22 C572.22 1105.87 573.14 1108.14 574.3 1110.64 C576.98 1116.51 578.69 1122.62 580.44 1128.81 C580.96 1130.66 580.96 1130.66 581.5 1132.55 C584.22 1142.36 586.34 1152.17 588.04 1162.21 C588.69 1166.04 589.41 1169.86 590.12 1173.69 C590.36 1174.95 590.59 1176.21 590.82 1177.51 C591.38 1180.59 591.38 1180.59 592.44 1183.56 C593.24 1187.3 593.9 1191.05 594.56 1194.81 C594.84 1196.4 594.84 1196.4 595.13 1198.02 C595.23 1198.86 595.33 1199.7 595.44 1200.56 C594.44 1201.56 594.44 1201.56 592.52 1201.69 C591.68 1201.69 590.83 1201.69 589.95 1201.69 C588.98 1201.69 588 1201.69 586.99 1201.69 C585.9 1201.69 584.82 1201.69 583.69 1201.69 C581.97 1201.69 581.97 1201.69 580.21 1201.69 C576.99 1201.69 573.78 1201.69 570.56 1201.68 C567.07 1201.68 563.58 1201.68 560.08 1201.69 C553.96 1201.69 547.83 1201.69 541.7 1201.68 C532.59 1201.68 523.48 1201.68 514.37 1201.68 C499.05 1201.68 483.72 1201.67 468.4 1201.67 C453.22 1201.66 438.04 1201.66 422.86 1201.66 C421.44 1201.66 421.44 1201.66 420 1201.66 C415.22 1201.66 410.43 1201.66 405.64 1201.66 C371.71 1201.65 337.77 1201.65 303.83 1201.64 C270.86 1201.63 237.88 1201.62 204.91 1201.62 C203.89 1201.62 202.88 1201.62 201.83 1201.62 C191.63 1201.62 181.43 1201.61 171.23 1201.61 C150.45 1201.61 129.66 1201.61 108.88 1201.6 C107.45 1201.6 107.45 1201.6 105.99 1201.6 C42.14 1201.6 -21.71 1201.58 -85.56 1201.56 C-85.59 1196.03 -85.61 1190.51 -85.62 1184.98 C-85.62 1183.11 -85.63 1181.23 -85.64 1179.36 C-85.79 1145 -85.79 1145 -81.5 1134.37 C-80.53 1131.46 -80.21 1128.69 -79.88 1125.65 C-79.34 1122.11 -78.12 1118.85 -76.88 1115.5 C-76.61 1114.77 -76.35 1114.04 -76.07 1113.29 C-72.54 1103.63 -68.74 1094.09 -64.49 1084.72 C-63.43 1082.26 -62.53 1079.77 -61.62 1077.25 C-58.54 1068.69 -55.39 1060.66 -50.5 1052.94 C-47.12 1047.59 -44.65 1042.51 -42.56 1036.56 C-38.29 1024.43 -33.55 1012.95 -27.56 1001.56 C-25.92 998.32 -24.32 995.06 -22.73 991.79 C-18.78 983.69 -14.68 976.06 -9.26 968.82 C-6.85 965.57 -4.96 962.42 -3.25 958.75 C-1.41 954.91 0.7 951.83 3.44 948.56 C6.69 944.65 9.01 940.86 11.16 936.27 C14.78 928.58 18.69 921.18 23.98 914.51 C25.62 912.32 26.99 910.05 28.38 907.69 C33.02 899.79 38.17 892.26 44.44 885.56 C45.1 885.56 45.76 885.56 46.44 885.56 C46.44 884.9 46.44 884.24 46.44 883.56 C47.14 882.9 47.84 882.24 48.56 881.56 C51.05 879.21 52.54 876.74 54.19 873.75 C58.02 867.12 63.4 862.43 69.81 858.31 C72.6 856.45 73.82 855.48 75.44 852.56 C75.87 849.59 75.83 846.64 75.8 843.64 C75.8 842.76 75.8 841.88 75.8 840.98 C75.8 838.11 75.78 835.24 75.75 832.38 C75.74 830.39 75.73 828.4 75.72 826.42 C75.62 813.57 75.05 800.88 73.76 788.1 C73.36 783.73 73.05 779.36 72.74 774.98 C72.62 773.25 72.49 771.51 72.37 769.78 C72.19 767.21 72.01 764.65 71.83 762.08 C71.24 753.36 70.45 744.74 68.96 736.12 C68.84 735.42 68.72 734.72 68.6 733.99 C67.7 729.01 67.7 729.01 65.44 724.56 C63.6 723.79 61.75 723.04 59.86 722.4 C52.78 719.95 46.34 717.4 41.44 711.56 C40.75 710.82 40.07 710.08 39.37 709.32 C33.44 702.86 33.44 702.86 33.44 700.56 C32.54 700.17 32.54 700.17 31.63 699.77 C25.49 696.4 21.56 689.41 17.62 683.81 C7.87 669.68 7.87 669.68 -5.98 659.91 C-9.29 658.18 -11.7 655.93 -14.41 653.41 C-17.85 650.45 -21.67 648.09 -25.46 645.61 C-42.32 634.47 -42.32 634.47 -48.06 627.62 C-50.01 625.35 -51.94 623.18 -54.06 621.06 C-60.75 614.37 -66.63 606.91 -72.56 599.56 C-73.18 598.81 -73.81 598.06 -74.45 597.28 C-78.45 592.32 -81.68 587.14 -84.81 581.59 C-86.47 578.72 -88.27 576 -90.12 573.25 C-93.66 567.78 -95.93 562.11 -98.2 556.04 C-99.48 552.76 -100.97 549.7 -102.56 546.56 C-103.24 544.9 -103.91 543.23 -104.56 541.56 C-105.71 538.89 -106.89 536.23 -108.06 533.56 C-109.24 530.9 -110.4 528.23 -111.56 525.56 C-111.93 524.72 -112.3 523.89 -112.68 523.02 C-116.91 511.24 -116.86 498.48 -116.88 486.12 C-116.88 485.43 -116.88 484.73 -116.89 484.01 C-116.92 472.1 -116.92 472.1 -114.56 468.56 C-114.78 466.12 -115.4 463.99 -116.27 461.7 C-117.97 457.12 -118.78 453.07 -119.06 448.19 C-119.52 440.38 -121.53 433.46 -124.12 426.12 C-125.67 421.68 -126.29 417.22 -126.84 412.55 C-127.6 409.42 -128.91 407.08 -130.57 404.34 C-135.77 395.08 -135.94 383.75 -136 373.44 C-136.01 371.82 -136.01 371.82 -136.03 370.17 C-135.97 364.47 -135.58 360.55 -132.56 355.56 C-132.4 354.35 -132.23 353.13 -132.06 351.88 C-131.52 348.31 -131.18 347.78 -128.56 345.56 C-125.91 341.84 -125.21 339.47 -125.45 334.92 C-125.5 333.85 -125.55 332.78 -125.61 331.68 C-125.67 330.57 -125.74 329.46 -125.81 328.31 C-125.87 327.22 -125.92 326.12 -125.97 325 C-126.13 321.85 -126.34 318.71 -126.56 315.56 C-126.61 314.71 -126.65 313.85 -126.69 312.97 C-127.07 307.69 -128.43 304.94 -131.56 300.56 C-132.65 297.12 -132.65 297.12 -133.5 293.56 C-135 287.91 -136.47 284.66 -140.56 280.56 C-140.56 279.9 -140.56 279.24 -140.56 278.56 C-141.55 278.23 -142.54 277.9 -143.56 277.56 C-146.68 263.75 -148.43 250.87 -146.04 236.75 C-145.42 232.62 -145.42 228.73 -145.56 224.56 C-146.22 224.23 -146.88 223.9 -147.56 223.56 C-148.63 224.22 -149.71 224.88 -150.81 225.56 C-153.54 227.19 -154.45 227.56 -157.75 227.56 C-162.05 226.03 -163.75 223.68 -166.38 220.06 C-168.13 214.89 -167.62 209.89 -166.56 204.56 C-165.57 203.57 -165.57 203.57 -164.56 202.56 C-164.36 200.46 -164.36 200.46 -164.38 198.06 C-163.94 192.5 -161.76 189.44 -158.41 185.1 C-155.98 181.77 -154.31 178.23 -152.61 174.5 C-151.56 172.56 -151.56 172.56 -149.56 171.56 C-149.16 170.45 -149.16 170.45 -148.75 169.31 C-147.28 165.91 -145.34 163.99 -142.56 161.56 C-141.9 161.56 -141.24 161.56 -140.56 161.56 C-139.19 160.13 -139.19 160.13 -137.81 158.31 C-135.08 154.99 -132.19 152.9 -128.56 150.56 C-127.54 149.25 -126.53 147.92 -125.56 146.56 C-124.9 146.56 -124.24 146.56 -123.56 146.56 C-123.34 145.96 -123.11 145.37 -122.88 144.75 C-121.56 142.56 -121.56 142.56 -118.99 141.54 C-116.4 139.86 -116.4 139.86 -116.19 137.56 C-116.14 134.93 -116.23 132.32 -116.38 129.69 C-116.43 127.77 -116.47 125.86 -116.51 123.95 C-116.53 123.02 -116.54 122.09 -116.56 121.14 C-116.56 112.59 -114.33 104.43 -112.15 96.23 C-111.63 93.88 -111.42 91.95 -111.5 89.56 C-111.56 86.56 -111.56 86.56 -110.59 84.8 C-109.2 81.77 -109.24 79.13 -109.12 75.81 C-108.84 70.93 -108.37 66.99 -106.36 62.54 C-105.39 60.13 -105 57.74 -104.5 55.19 C-102.94 49.09 -99.42 46.01 -94.87 41.86 C-92.73 39.73 -91.71 38.34 -90.69 35.56 C-89.35 32 -88.81 32.09 -85.56 30.56 C-84.58 29.63 -83.63 28.67 -82.69 27.69 C-77.13 22.76 -69.04 20.92 -61.76 20.34 C-59.56 20.56 -59.56 20.56 -57.56 22.56 C-57.56 23.55 -57.56 24.54 -57.56 25.56 C-56.9 25.89 -56.24 26.22 -55.56 26.56 C-54.53 27.87 -53.53 29.2 -52.56 30.56 C-52 30.04 -51.44 29.52 -50.87 28.98 C-45.83 24.36 -40.68 19.97 -35.31 15.75 C-34.73 15.29 -34.16 14.84 -33.56 14.37 C-30 11.59 -26.32 9.07 -22.56 6.56 C-21.9 5.9 -21.24 5.24 -20.56 4.56 C-20.89 3.9 -21.22 3.24 -21.56 2.56 C-6.28 -2.53 -6.28 -2.53 0 0 Z " fill="#080D14" transform="translate(485.5625,78.4375)"/>
<path d="M0 0 C0.99 0 1.98 0 3 0 C3 0.66 3 1.32 3 2 C3.66 2.19 4.32 2.37 5 2.56 C7.85 3.93 9.26 5.1 11.5 7.25 C16.6 11.93 22.67 14.36 29 17 C29 18.32 29 19.64 29 21 C30.32 20.34 31.64 19.68 33 19 C33.47 19.43 33.95 19.87 34.44 20.31 C37.47 22.31 40.42 23.22 43.88 24.25 C46 25 46 25 49 27 C51.13 27.51 51.13 27.51 53.49 27.78 C54.36 27.9 55.23 28.02 56.13 28.14 C57.04 28.26 57.94 28.38 58.88 28.5 C69.33 29.86 69.33 29.86 74 32 C75.43 32.4 76.87 32.78 78.31 33.12 C79.53 33.41 80.75 33.7 82 34 C82 34.66 82 35.32 82 36 C82.72 36.08 83.44 36.17 84.19 36.25 C87 37 87 37 89.25 38.81 C96.31 44.43 104.1 46.33 113 46 C113.99 45.67 114.98 45.34 116 45 C116.03 41.71 116.05 38.42 116.06 35.12 C116.07 34.19 116.08 33.25 116.09 32.29 C116.09 31.39 116.09 30.49 116.1 29.57 C116.1 28.74 116.11 27.92 116.11 27.06 C116.13 24.94 116.13 24.94 115 23 C124.17 23.44 130.69 26.66 138.19 31.81 C139.79 32.88 141.39 33.94 143 35 C144.05 35.7 145.11 36.4 146.2 37.12 C156.49 43.53 166.02 44.51 178 44 C179.52 43.94 179.52 43.94 181.07 43.87 C186.4 43.19 189.13 41.12 193.25 37.75 C200.75 32.33 208.24 33.88 217.02 35.09 C223.14 36.12 227.86 37.88 233.21 41.04 C247.12 48.53 266.28 47.41 281.31 44.56 C283.24 44.06 283.24 44.06 285 42 C288.12 42.38 288.12 42.38 291 43 C291.33 42.01 291.66 41.02 292 40 C294.87 38.83 294.87 38.83 298.44 37.81 C299.61 37.47 300.79 37.12 302 36.77 C305 36 305 36 307 36 C307.33 35.01 307.66 34.02 308 33 C308.66 33.33 309.32 33.66 310 34 C310.33 33.01 310.66 32.02 311 31 C312.32 31 313.64 31 315 31 C315.87 30.5 315.87 30.5 316.75 30 C320.18 28.48 323.27 28.88 327 29 C327.65 30.58 328.29 32.17 328.94 33.75 C329.3 34.63 329.66 35.51 330.03 36.42 C332.48 42.91 332.26 49.35 332.3 56.2 C332.31 57.63 332.33 59.06 332.36 60.49 C332.59 71.73 331.19 81.19 326.89 91.72 C325.84 94.41 325.7 96.56 325.69 99.44 C325.67 100.34 325.65 101.25 325.64 102.18 C325.86 105.11 325.86 105.11 327.45 107.89 C329.22 111.45 329.66 114.44 330.19 118.38 C332.08 130.01 337.23 140.9 345.47 149.4 C347.67 151.7 349.29 154.32 351 157 C351.52 157.61 352.04 158.21 352.58 158.84 C354.33 161.5 354.36 163.21 354.44 166.38 C354.68 170.16 354.78 171.67 356.94 174.88 C359.76 179.15 360 183.24 360.61 188.27 C360.71 190.91 360.71 190.91 362 192 C362.92 198.21 363.07 204.35 363.06 210.62 C363.06 211.48 363.06 212.33 363.06 213.22 C363.02 226.84 362.66 240.46 362.35 254.07 C362.27 257.71 362.19 261.35 362.12 264.99 C362.09 266.09 362.07 267.2 362.04 268.33 C361.94 273.69 362.03 278.73 363 284 C365.63 284.95 367.2 284.97 370 284.53 C374.81 283.79 379.59 283.89 384.44 283.94 C385.36 283.94 386.28 283.95 387.23 283.95 C389.49 283.96 391.74 283.98 394 284 C396.5 277.68 397.17 272.17 397 265.44 C396.83 258.42 397.48 252.02 398.86 245.15 C400.18 238.45 400.69 231.83 401 225 C407.62 222 407.62 222 411 222 C411.34 221.23 411.34 221.23 411.69 220.44 C417.5 209.65 425.74 205.4 436.59 200.3 C439.12 199.23 439.12 199.23 440 197 C440.99 197.33 441.98 197.66 443 198 C443.33 197.67 443.66 197.34 444 197 C448.26 195.8 452.25 195.02 456.23 197.25 C458.31 199.06 460.16 200.95 462 203 C462.58 203.58 463.16 204.15 463.76 204.75 C467.61 208.77 469.2 212.5 470 218 C470.29 219.75 470.29 219.75 470.59 221.54 C472.71 235.21 471.65 247.66 468 261 C463.65 278.84 465.53 288.48 473.94 304.88 C478.14 313.29 480.42 324.63 479 334 C476.81 340.42 473.17 345.41 468.55 350.31 C466.81 352.12 466.81 352.12 465 355 C463.34 355.68 461.67 356.35 460 357 C459.57 357.49 459.13 357.98 458.68 358.48 C456.42 360.53 454.52 360.78 451.53 361.35 C450.46 361.56 449.4 361.77 448.3 361.99 C447.19 362.2 446.08 362.41 444.94 362.62 C442.74 363.05 440.54 363.48 438.34 363.91 C437.36 364.1 436.39 364.28 435.38 364.48 C433 364.9 433 364.9 431 366 C424.09 367.68 419.41 366.98 413.25 363.44 C403.78 357.38 400.62 349.28 397 339 C396.2 342.29 395.9 343.71 397 347 C397.69 367.58 394.09 391.01 383.95 409.15 C382.83 411.11 382.83 411.11 382.5 414 C381.5 419.98 378.02 425.33 374.94 430.5 C373.35 433.21 372.19 435.95 371.06 438.88 C369.13 443.86 366.7 448.39 364 453 C363.48 453.97 362.97 454.94 362.44 455.94 C361 458 361 458 359 458.94 C356 460.53 355.32 462.98 354 466 C352.68 466 351.36 466 350 466 C348.92 468.65 347.91 471.28 347 474 C345.67 474.67 344.33 475.33 343 476 C341.99 477.32 340.99 478.66 340 480 C339.34 480 338.68 480 338 480 C337.63 481.18 337.63 481.18 337.25 482.38 C335.77 485.48 334.99 485.59 332 487 C330.66 488.66 329.32 490.33 328 492 C325.29 494.76 323.11 496.88 319.12 497.31 C318.42 497.21 317.72 497.11 317 497 C316.67 498.32 316.34 499.64 316 501 C314.68 501 313.36 501 312 501 C311.67 501.99 311.34 502.98 311 504 C309.36 504.72 307.68 505.38 306 506 C304.25 506.96 302.55 507.97 300.84 509 C298.63 510.2 296.35 511.09 294 512 C293.17 512.34 292.35 512.68 291.5 513.04 C290.67 513.37 289.85 513.71 289 514.06 C288.17 514.4 287.35 514.75 286.5 515.1 C283.99 516 281.62 516.52 279 517 C276.75 517.49 274.5 517.99 272.25 518.5 C270.53 518.89 270.53 518.89 268.77 519.28 C266.11 519.72 266.11 519.72 265 521 C263.8 521.08 262.61 521.16 261.38 521.25 C256.51 521.79 253.73 524.01 250 527 C245.37 530.12 240.71 531.76 235.12 532.25 C231.12 533.21 228.45 535.21 225.15 537.62 C223 539 223 539 220.79 539.5 C220.2 539.66 219.61 539.83 219 540 C218.67 540.99 218.34 541.98 218 543 C216.06 544.1 214.07 544.9 212.01 545.74 C209.78 546.89 209.78 546.89 208.84 549.49 C205.93 553.47 202.13 553.54 197.44 554.31 C196.03 554.56 196.03 554.56 194.6 554.81 C185.69 556.26 177 556.46 168 556 C166.14 555.92 166.14 555.92 164.24 555.83 C158.52 555.49 153.49 554.69 148 553 C146.56 552.93 145.13 552.87 143.69 552.81 C135.59 552.05 129.36 545.65 124 540 C122.88 539.12 121.75 538.25 120.62 537.38 C115.92 533.4 113.14 528.22 110 523 C106.7 517.79 103.29 512.95 99.1 508.41 C98 507 98 507 98 505 C96.92 504.64 96.92 504.64 95.82 504.28 C92.56 502.8 90.52 500.96 87.94 498.5 C85.04 495.75 82.58 493.72 79 492 C78.23 490.89 78.23 490.89 77.44 489.75 C74.38 486.3 71.08 484.72 67.02 482.61 C59.98 478.86 53.44 474.89 48 469 C46.14 467.42 44.26 465.87 42.36 464.33 C41.91 463.89 41.46 463.45 41 463 C41 462.34 41 461.68 41 461 C40.1 460.66 40.1 460.66 39.19 460.31 C36.4 458.64 35.62 456.79 34 454 C32.35 452.31 30.68 450.65 29 449 C23.15 442.97 18.07 436.96 13.72 429.76 C11.9 426.85 9.93 424.12 7.88 421.38 C4.97 417.44 2.43 413.5 0.16 409.18 C-0.64 407.68 -1.47 406.21 -2.34 404.76 C-4.56 401.03 -6.18 397.85 -6.94 393.56 C-7.6 389.86 -8.84 387.49 -10.94 384.38 C-19.15 371.41 -18.05 353.52 -18.12 338.62 C-18.13 337.37 -18.13 337.37 -18.14 336.08 C-18.12 330.12 -18.12 330.12 -17 329 C-16.9 327.51 -16.87 326.02 -16.86 324.53 C-16.57 307.04 -13.56 290.86 -9.56 273.88 C-5.79 257.72 -5.41 243.44 -7.37 226.96 C-7.44 226.34 -7.51 225.72 -7.59 225.08 C-7.98 222.84 -7.98 222.84 -9.02 220.19 C-10.11 216.64 -10.24 213.74 -10.24 210.03 C-10.25 208.66 -10.26 207.28 -10.28 205.91 C-10.28 205.19 -10.29 204.47 -10.29 203.73 C-10.49 181.98 -14.13 161.36 -18.75 140.13 C-20.12 133.75 -20.83 127.53 -21 121 C-21.03 120.22 -21.05 119.44 -21.08 118.63 C-21.7 97.75 -20.11 77.03 -14 57 C-13.65 55.53 -13.31 54.05 -13 52.56 C-12.08 48.27 -11.05 44.01 -10 39.75 C-9.83 39.06 -9.67 38.38 -9.5 37.67 C-8.58 33.98 -7.48 30.51 -6 27 C-5.54 25.39 -5.08 23.77 -4.64 22.15 C-4.14 20.47 -3.57 18.81 -2.98 17.16 C-0.84 11.16 0.49 6.38 0 0 Z " fill="#EEEFE4" transform="translate(400,233)"/>
<path d="M0 0 C5.25 4.19 5.53 12.5 6.38 18.79 C6.59 20.86 6.8 22.93 7 25 C7.33 25.66 7.66 26.32 8 27 C8.2 28.77 8.38 30.53 8.54 32.3 C9.71 45.06 12.3 57.49 15 70 C15.28 71.29 15.28 71.29 15.56 72.61 C17.19 80.2 18.96 87.47 22.07 94.62 C23.51 98.31 24.31 102.13 25.22 105.98 C26.21 109.81 27.53 113.45 28.94 117.14 C30.07 120.19 31.1 123.27 32.13 126.37 C33.87 131.61 35.65 136.84 37.44 142.06 C37.82 143.19 38.2 144.33 38.6 145.49 C40.69 151.6 43.02 157.28 46 163 C46.79 165.32 47.4 167.62 48 170 C43.26 175.01 38.72 176.05 32.02 177.32 C29.29 177.94 27.46 178.74 25 180 C23.91 180.29 22.82 180.59 21.69 180.89 C17.79 182.06 14.46 183.75 10.94 185.75 C4.89 189.08 -1.18 191.9 -7.59 194.48 C-11.08 196.03 -14.33 197.83 -17.65 199.71 C-21.45 201.8 -25.38 203.61 -29.31 205.44 C-30.98 206.22 -32.65 207.01 -34.32 207.79 C-35.12 208.17 -35.92 208.55 -36.75 208.94 C-45.06 212.86 -53.13 216.94 -60.7 222.18 C-66.48 226.03 -72.74 228.59 -79.1 231.31 C-83.84 233.34 -88.43 235.61 -93 238 C-93.8 238.39 -94.6 238.78 -95.42 239.18 C-104.26 243.69 -112.04 249.68 -120 255.56 C-121.78 256.84 -123.58 258.07 -125.42 259.27 C-128.03 260.9 -128.03 260.9 -130 263 C-131.67 263.67 -133.33 264.33 -135 265 C-137.79 266.43 -140.52 267.96 -143.25 269.5 C-143.98 269.9 -144.71 270.31 -145.47 270.72 C-146.16 271.11 -146.86 271.5 -147.58 271.91 C-148.21 272.26 -148.84 272.61 -149.5 272.98 C-151.17 273.94 -151.17 273.94 -152 276 C-153.76 276.94 -155.56 277.81 -157.38 278.62 C-158.35 279.07 -159.33 279.52 -160.34 279.98 C-163 281 -163 281 -166 281 C-166.33 281.99 -166.66 282.98 -167 284 C-167.33 283.34 -167.66 282.68 -168 282 C-168.99 282.99 -169.98 283.98 -171 285 C-170.34 285.33 -169.68 285.66 -169 286 C-173.79 289.47 -178.53 292.84 -183.75 295.62 C-188.77 298.32 -192.79 301.19 -196 306 C-197.53 300.8 -197.19 295.5 -197.19 290.12 C-197.19 289 -197.19 287.87 -197.19 286.71 C-197.13 278.61 -196.58 270.95 -195 263 C-194.83 262.08 -194.66 261.17 -194.49 260.22 C-193.8 256.56 -193 252.99 -191.99 249.4 C-190.71 244.3 -190.46 239.17 -190.12 233.94 C-189.63 227.05 -188.89 220.77 -186.81 214.19 C-184.25 205.67 -185.08 197.71 -186 189 C-186.19 187.08 -186.38 185.17 -186.56 183.25 C-186.65 182.39 -186.73 181.54 -186.82 180.65 C-187.02 177.69 -186.99 174.78 -186.94 171.81 C-186.89 165.66 -187.32 159.63 -187.88 153.5 C-189.04 140.68 -189.69 127.85 -190.3 115 C-190.34 114.2 -190.38 113.4 -190.42 112.58 C-190.49 111.08 -190.57 109.58 -190.63 108.09 C-190.87 103.35 -191.39 98.7 -192 94 C-192.03 92.33 -192.05 90.67 -192 89 C-188.25 87.88 -188.25 87.88 -186 89 C-182.69 89.24 -179.38 89.38 -176.07 89.52 C-173 90 -173 90 -171.12 91.28 C-169.76 93.36 -169.57 94.71 -169.44 97.19 C-169.22 100.89 -168.43 104.26 -167.5 107.84 C-166.67 111.42 -166.31 115.04 -165.94 118.69 C-165.46 123.17 -164.98 127.6 -164 132 C-163.34 132 -162.68 132 -162 132 C-162.04 130.8 -162.08 129.61 -162.12 128.38 C-162.15 124.12 -161.58 120.13 -160.88 115.94 C-159.87 109.4 -159.99 104.91 -163.06 98.94 C-164.47 96.04 -164.71 93.18 -165 90 C-164.67 89.34 -164.34 88.68 -164 88 C-155.16 85.72 -146.06 85.76 -137 86 C-136.5 84.51 -136.5 84.51 -136 83 C-133.93 82.08 -133.93 82.08 -131.31 81.25 C-126.56 79.5 -124.49 77.57 -121.49 73.61 C-119.31 71.26 -116.97 70.55 -113.95 69.62 C-111.73 68.98 -111.73 68.98 -108.81 67.31 C-106 66 -106 66 -103.84 66.21 C-99.45 65.88 -96.36 63.55 -92.69 61.25 C-77.64 52 -77.64 52 -72 52 C-72 51.34 -72 50.68 -72 50 C-67.06 47.64 -62.33 45.71 -56.99 44.5 C-53.52 43.63 -50.3 42.39 -47 41 C-46.67 40.34 -46.34 39.68 -46 39 C-44.33 38.11 -44.33 38.11 -42.25 37.19 C-38.38 35.33 -36.01 33.08 -33 30 C-30.07 27.9 -27.05 25.93 -24 24 C-24.99 23.01 -24.99 23.01 -26 22 C-26 21.34 -26 20.68 -26 20 C-24.79 20.22 -24.79 20.22 -23.56 20.44 C-18.83 19.86 -16.6 17.67 -13.05 14.63 C-11 13 -11 13 -8 12 C-7.71 11.42 -7.42 10.85 -7.12 10.25 C-5.63 7.25 -3.36 5.36 -1 3 C-0.67 2.01 -0.34 1.02 0 0 Z " fill="#EEEFE4" transform="translate(754,717)"/>
<path d="M0 0 C0.9 0.01 1.8 0.02 2.73 0.03 C3.42 0.04 4.1 0.05 4.81 0.06 C4.81 0.72 4.81 1.38 4.81 2.06 C5.49 2.11 6.17 2.16 6.87 2.21 C24.35 3.62 24.35 3.62 29.81 7.06 C30.31 8.55 30.31 8.55 30.81 10.06 C32.09 10.14 33.37 10.23 34.69 10.31 C40.15 10.89 44.83 12.83 49.81 15.06 C49.81 15.72 49.81 16.38 49.81 17.06 C50.8 17.06 51.79 17.06 52.81 17.06 C52.81 17.72 52.81 18.38 52.81 19.06 C53.47 19.06 54.13 19.06 54.81 19.06 C54.31 20.88 54.31 20.88 52.81 23.06 C42.36 28.39 29.34 28.17 17.82 29.25 C15.54 29.47 13.27 29.7 11 29.94 C10.27 30 9.54 30.07 8.79 30.14 C4.39 30.61 1.41 31.49 -2.19 34.06 C-7.28 37.52 -10.96 39.67 -17.19 40.06 C-17.52 41.05 -17.85 42.04 -18.19 43.06 C-19.81 44.45 -21.47 45.79 -23.19 47.06 C-30.03 40.4 -30.03 40.4 -30.49 36.54 C-30.53 26.75 -30.53 26.75 -27.19 23.06 C-26.4 22.66 -25.61 22.26 -24.8 21.84 C-21.43 19.55 -20.36 17.2 -18.56 13.56 C-14.8 5.99 -14.8 5.99 -12.19 4.06 C-11.2 4.06 -10.21 4.06 -9.19 4.06 C-8.86 3.07 -8.53 2.08 -8.19 1.06 C-5.17 0.06 -3.15 -0.04 0 0 Z " fill="#0A0F15" transform="translate(432.1875,361.9375)"/>
<path d="M0 0 C3.47 -0.3 5.96 -0.35 8.94 1.59 C10.26 2.78 11.54 4.01 12.8 5.26 C15.18 7.51 17.68 9.19 20.4 10.99 C25.72 14.77 29.21 19.13 32.89 24.47 C34.89 27.37 34.89 27.37 37.48 29.72 C40.39 32.75 42 35.74 43.78 39.49 C44.24 40.43 44.24 40.43 44.72 41.4 C46.96 46.01 46.96 46.01 46.96 48.3 C48.45 48.8 48.45 48.8 49.96 49.3 C49.47 50.29 49.47 50.29 48.96 51.3 C44.41 50.03 41.56 48.34 37.96 45.3 C37.12 44.85 36.27 44.4 35.4 43.93 C32.96 42.3 32.96 42.3 31.32 39.38 C28.25 35.37 25.66 34.65 20.9 33.43 C19.77 33.12 19.77 33.12 18.62 32.8 C12.7 31.26 7.08 30.71 0.96 31.3 C0.3 29.98 -0.36 28.66 -1.04 27.3 C-1.7 27.3 -2.36 27.3 -3.04 27.3 C-3.04 26.64 -3.04 25.98 -3.04 25.3 C-3.71 25.47 -4.38 25.64 -5.08 25.81 C-8.56 26.39 -11.82 26.33 -15.35 26.24 C-19.54 26.18 -23.48 26.17 -27.54 27.37 C-31.51 28.43 -34.01 28.02 -38.04 27.3 C-39.45 27.33 -40.87 27.37 -42.29 27.43 C-46.04 27.3 -46.04 27.3 -48.1 26.24 C-49.71 22.9 -49.15 20.76 -48.04 17.3 C-45.1 15.68 -45.1 15.68 -43.15 15.04 C-40.85 14.24 -38.91 13.17 -36.79 11.99 C-30.27 8.67 -23.3 6.74 -16.33 4.64 C-13.16 3.68 -10.1 2.58 -7.04 1.3 C-4.7 0.66 -2.39 0.36 0 0 Z " fill="#0B1016" transform="translate(663.03515625,356.6953125)"/>
<path d="M0 0 C2.62 -0.44 2.62 -0.44 6 0 C10.79 3.76 13.65 9.13 15 15 C15.12 18.62 15.12 18.62 15 22 C15.25 22.99 15.5 23.98 15.75 25 C16.05 28.58 14.97 30.34 13.06 33.32 C11.72 35.44 10.85 37.65 10 40 C9.01 39.34 8.02 38.68 7 38 C6.66 36.12 6.66 36.12 6.71 33.87 C6.72 33.06 6.73 32.26 6.74 31.43 C6.76 30.58 6.79 29.74 6.81 28.88 C6.83 28.03 6.84 27.18 6.85 26.3 C6.89 24.2 6.94 22.1 7 20 C2.74 17.64 2.74 17.64 -2 17 C-2.43 17.78 -2.87 18.57 -3.31 19.38 C-5.48 22.74 -7.22 22.98 -11 24 C-11.99 24.66 -12.98 25.32 -14 26 C-15.74 26.35 -17.49 26.63 -19.25 26.88 C-22.8 27.46 -25.54 28.05 -28.56 30 C-32.24 32.14 -34.94 32.69 -39.06 33.38 C-42.49 34.1 -45.64 35.26 -48.94 36.44 C-59.75 40.13 -71.23 40.71 -82.55 41.69 C-85 41.86 -85 41.86 -87 43 C-89.33 43.04 -91.67 43.04 -94 43 C-94.04 44.93 -94.04 44.93 -93 47 C-86.89 50.89 -80.05 50.93 -73 50 C-70.21 48.95 -67.77 47.73 -65.22 46.19 C-62.79 44.89 -60.71 44.45 -58 44 C-55.99 43.36 -53.99 42.69 -52 42 C-59.01 49.45 -69.88 54.77 -80 56 C-85.88 56 -89.04 53.8 -93.64 50.5 C-97.19 48.24 -100.96 47.09 -105 46 C-105 45.34 -105 44.68 -105 44 C-116.82 43.42 -128.6 42.85 -140.43 43.06 C-143 43 -143 43 -144 42 C-145.51 41.77 -147.04 41.59 -148.56 41.44 C-149.39 41.35 -150.22 41.27 -151.07 41.18 C-152.02 41.09 -152.02 41.09 -153 41 C-153.08 42.03 -153.17 43.06 -153.25 44.12 C-154.06 48.33 -155.33 50.68 -158 54 C-158.66 54 -159.32 54 -160 54 C-162.03 44.88 -163.12 38.23 -158 30 C-158 29.15 -158 28.31 -158 27.44 C-158 25 -158 25 -156.81 22.69 C-155 21 -155 21 -152.44 20.56 C-151.63 20.71 -150.83 20.85 -150 21 C-148 24 -148 24 -148.31 25.94 C-148.54 26.62 -148.77 27.3 -149 28 C-149.63 30.11 -149.63 30.11 -150 32 C-147.84 34.16 -143.49 34.01 -140.5 34.5 C-132.14 35.86 -132.14 35.86 -131 37 C-127.95 37.11 -124.92 37.16 -121.87 37.17 C-120.46 37.17 -120.46 37.17 -119.03 37.18 C-115.98 37.19 -112.93 37.19 -109.88 37.19 C-108.84 37.19 -107.81 37.19 -106.75 37.18 C-73.63 38.4 -73.63 38.4 -43 28 C-41.12 27.35 -39.22 26.75 -37.31 26.19 C-36.16 25.84 -35.02 25.49 -33.83 25.14 C-31.86 24.55 -29.88 23.97 -27.91 23.39 C-25.77 22.77 -23.63 22.14 -21.5 21.5 C-20.83 21.31 -20.16 21.12 -19.47 20.93 C-13.78 19.22 -9.93 16.48 -6.31 11.81 C-4 9 -4 9 -2 8 C-1.32 6.11 -1.32 6.11 -0.88 3.94 C-0.62 2.84 -0.62 2.84 -0.37 1.71 C-0.25 1.15 -0.12 0.58 0 0 Z " fill="#0B1016" transform="translate(633,596)"/>
<path d="M0 0 C0.99 0.33 1.98 0.66 3 1 C2.47 5.52 0.82 8.45 -2 12 C-4.25 12.88 -4.25 12.88 -6 13 C-6 14.32 -6 15.64 -6 17 C-7.65 17.33 -9.3 17.66 -11 18 C-11.09 19.42 -11.09 19.42 -11.19 20.88 C-11.46 21.91 -11.72 22.94 -12 24 C-14.56 25.38 -14.56 25.38 -17 26 C-17 27.32 -17 28.64 -17 30 C-20.47 31.16 -23.36 31.07 -27 31 C-27 31.66 -27 32.32 -27 33 C-28.64 34.05 -30.3 35.05 -32 36 C-32.33 36.33 -32.66 36.66 -33 37 C-35.67 37.14 -38.32 37.04 -41 37 C-41.33 37.99 -41.66 38.98 -42 40 C-43.67 40.88 -43.67 40.88 -45.75 41.56 C-47.98 42.32 -50.08 43.04 -52.2 44.07 C-62.94 47.65 -76.93 45.43 -87 41 C-89.86 39.54 -92.43 37.92 -95 36 C-95.56 35.6 -96.13 35.2 -96.71 34.78 C-100.38 31.99 -102.41 29.32 -104 25 C-104.19 21.62 -104.19 21.62 -104 19 C-100.34 19.41 -98.38 21.26 -95.69 23.65 C-90.96 27.76 -87.19 30.72 -80.69 30.81 C-78.45 30.62 -76.22 30.35 -74 30 C-73.32 29.9 -72.65 29.8 -71.95 29.69 C-63.58 28.48 -63.58 28.48 -55.55 26 C-52.75 24.9 -49.97 24.39 -47.02 23.86 C-36.14 21.84 -27.46 17.6 -18 12 C-16.51 11.16 -16.51 11.16 -15 10.29 C-10.24 7.54 -5.91 4.52 -1.69 1 C-1.13 0.67 -0.58 0.34 0 0 Z " fill="#0D1117" transform="translate(616,645)"/>
<path d="M0 0 C3 0 3 0 4.81 1.56 C6 4 6 4 5.31 7.5 C4 11 4 11 2.93 12.93 C-0.41 20.32 2.46 31.35 4.9 38.71 C6.24 41.49 7.72 42.42 10.58 43.51 C15.97 44.6 21.54 44.2 27 44 C27.33 43.01 27.66 42.02 28 41 C28.71 40.91 29.42 40.82 30.15 40.73 C33.6 39.84 35.75 38.36 38.62 36.25 C39.57 35.57 40.51 34.9 41.48 34.2 C45.15 30.99 47.12 27.71 48.06 22.94 C48.22 22.17 48.37 21.41 48.53 20.62 C49.4 15.76 50.22 10.88 51 6 C51.66 6 52.32 6 53 6 C55.48 17.71 57.27 31.35 51.19 42.25 C50.47 43.16 49.74 44.07 49 45 C47.79 46.55 47.79 46.55 46.56 48.12 C42.67 52.49 39.85 55.18 34 56 C32.82 56.37 31.65 56.74 30.44 57.12 C23.72 58.81 16.61 58.4 10.5 55.12 C9.67 54.42 8.85 53.72 8 53 C7.22 52.46 6.43 51.93 5.62 51.38 C5.09 50.92 4.55 50.47 4 50 C4 49.34 4 48.68 4 48 C3.34 48 2.68 48 2 48 C-5.7 32 -6.56 19.06 -0.84 2.28 C-0.42 1.15 -0.42 1.15 0 0 Z " fill="#0A0F16" transform="translate(529,523)"/>
<path d="M0 0 C3 1.81 3 1.81 5 4 C5.51 4.45 6.03 4.89 6.55 5.36 C8.33 7.38 8.64 8.87 9.12 11.5 C9.62 14.12 10.15 16.46 11 19 C10.83 21.13 10.57 23.26 10.25 25.38 C10.09 26.5 9.93 27.62 9.77 28.77 C8.97 32.12 8.09 34.28 6 37 C1.54 39.49 -3.94 40.72 -9 40 C-10.88 38.62 -10.88 38.62 -12 37 C-12 36.34 -12 35.68 -12 35 C-12.78 34.75 -13.57 34.5 -14.38 34.25 C-17.5 32.76 -17.84 32.18 -19 29 C-20.12 19.21 -19.19 10.59 -14 2 C-9.55 -0.97 -5.22 -0.64 0 0 Z " fill="#0A0E15" transform="translate(654,452)"/>
<path d="M0 0 C4.18 0.53 5.35 2.1 7.94 5.38 C12.1 11.92 13.67 18.14 12.38 25.81 C10.85 31.8 7.5 36.96 3.02 41.18 C0.94 42.38 0.94 42.38 -1.21 42.33 C-7.09 40.47 -9.7 37.98 -12.87 32.73 C-16.49 25.59 -17.59 18.53 -15.27 10.7 C-13.69 7.01 -12.17 4 -9.06 1.38 C-6.05 0.64 -3.08 0.38 0 0 Z " fill="#0B0F16" transform="translate(475.0625,447.625)"/>
<path d="M0 0 C4.04 1.35 4.85 3.42 7 7 C7.33 7.99 7.66 8.98 8 10 C8.66 10.33 9.32 10.66 10 11 C10.75 12.79 10.75 12.79 11.44 15.06 C12.4 18.15 13.43 21.18 14.62 24.19 C17.07 30.67 18.33 38.05 16.08 44.73 C14.59 49.22 13.9 53.77 13.14 58.43 C12.21 63.79 12.21 63.79 10 66 C10 65.01 10 64.02 10 63 C9.34 63 8.68 63 8 63 C7.76 62.02 7.52 61.04 7.27 60.03 C5.49 52.86 3.69 45.7 1.81 38.56 C1.49 37.33 1.17 36.09 0.83 34.82 C0.28 32.12 0.28 32.12 -1 31 C-1.21 29.36 -1.37 27.71 -1.5 26.06 C-1.75 22.39 -1.75 22.39 -3 19 C-2.96 16.52 -2.86 14.09 -2.69 11.62 C-2.65 10.95 -2.62 10.28 -2.58 9.59 C-2.34 5.96 -1.95 3.11 0 0 Z " fill="#EBECE1" transform="translate(363,451)"/>
<path d="M0 0 C2.62 -0.44 2.62 -0.44 6 0 C10.79 3.76 13.65 9.13 15 15 C15.12 18.62 15.12 18.62 15 22 C15.25 22.99 15.5 23.98 15.75 25 C16.05 28.58 14.97 30.34 13.06 33.32 C11.72 35.44 10.85 37.65 10 40 C9.01 39.34 8.02 38.68 7 38 C6.66 36.12 6.66 36.12 6.71 33.87 C6.72 32.66 6.72 32.66 6.74 31.43 C6.76 30.58 6.79 29.74 6.81 28.88 C6.83 27.6 6.83 27.6 6.85 26.3 C6.89 24.2 6.94 22.1 7 20 C2.74 17.64 2.74 17.64 -2 17 C-2.43 17.78 -2.87 18.57 -3.31 19.38 C-5.48 22.74 -7.22 22.98 -11 24 C-11.99 24.66 -12.98 25.32 -14 26 C-15.74 26.35 -17.49 26.63 -19.25 26.88 C-22.89 27.47 -25.6 28.1 -28.69 30.12 C-32.9 32.51 -35.25 32.33 -40 32 C-40 31.34 -40 30.68 -40 30 C-40.99 30 -41.98 30 -43 30 C-43 29.34 -43 28.68 -43 28 C-42.25 27.77 -41.49 27.54 -40.72 27.3 C-38.46 26.61 -36.2 25.91 -33.94 25.21 C-31.22 24.37 -28.49 23.56 -25.75 22.76 C-24.33 22.34 -22.92 21.92 -21.5 21.5 C-20.83 21.31 -20.16 21.12 -19.47 20.93 C-13.78 19.22 -9.93 16.48 -6.31 11.81 C-4 9 -4 9 -2 8 C-1.32 6.11 -1.32 6.11 -0.88 3.94 C-0.71 3.2 -0.54 2.47 -0.37 1.71 C-0.19 0.87 -0.19 0.87 0 0 Z " fill="#0E1218" transform="translate(633,596)"/>
<path d="M0 0 C2.31 3.06 2.31 3.06 4 6 C1.81 8.19 0.79 8.46 -2.12 9.25 C-6.62 10.65 -9.77 12.8 -13.37 15.79 C-15 17 -15 17 -17 17 C-17.27 17.8 -17.54 18.61 -17.81 19.44 C-18.2 20.28 -18.6 21.13 -19 22 C-19.99 22.33 -20.98 22.66 -22 23 C-21.67 21.68 -21.34 20.36 -21 19 C-21.99 19 -22.98 19 -24 19 C-24.66 20.32 -25.32 21.64 -26 23 C-25.34 23.66 -24.68 24.32 -24 25 C-30.45 31.63 -30.45 31.63 -34 34 C-36.31 33.75 -36.31 33.75 -38 33 C-37.01 32.34 -36.02 31.68 -35 31 C-34.3 29.69 -33.64 28.35 -33 27 C-32.34 26.05 -31.68 25.1 -31 24.12 C-28.89 21.14 -28.89 21.14 -28.06 17.94 C-26.71 14.21 -24.96 12.64 -22 10 C-21.41 9.43 -20.82 8.86 -20.21 8.27 C-15.31 3.68 -7.07 -3.64 0 0 Z " fill="#0C1016" transform="translate(853,450)"/>
<path d="M0 0 C-0.18 1.83 -0.18 1.83 -1 4 C-6.28 7.34 -11.88 9.03 -18 10 C-19.01 10.68 -20.02 11.36 -21.06 12.06 C-26.24 15.2 -32.17 14.74 -38 14 C-41.03 12.95 -43.27 11.72 -46 10 C-46 8.68 -46 7.36 -46 6 C-38.42 4.12 -30.89 3.23 -23.12 2.44 C-20.71 2.19 -18.3 1.94 -15.88 1.68 C-14.82 1.58 -13.77 1.47 -12.68 1.36 C-2.2 -0.04 -2.2 -0.04 0 0 Z " fill="#EBECE1" transform="translate(585,633)"/>
<path d="M0 0 C3 0 3 0 4.81 1.56 C6 4 6 4 5.31 7.5 C4 11 4 11 2.93 12.93 C-0.11 19.67 2.29 29.12 4 36 C4.35 36.84 4.7 37.69 5.06 38.55 C6.45 42.16 6.13 45.16 6 49 C5.01 49.5 5.01 49.5 4 50 C4 49.34 4 48.68 4 48 C3.34 48 2.68 48 2 48 C-5.7 32 -6.56 19.06 -0.84 2.28 C-0.42 1.15 -0.42 1.15 0 0 Z " fill="#10141A" transform="translate(529,523)"/>
<path d="M0 0 C0.66 0 1.32 0 2 0 C9.43 12.16 9.45 19.87 6.89 33.5 C6.59 34.65 6.3 35.81 6 37 C5.01 37.5 5.01 37.5 4 38 C2.65 35.3 2.82 33.1 2.75 30.07 C2.72 28.89 2.69 27.7 2.65 26.47 C2.59 23.96 2.54 21.45 2.48 18.94 C2.45 17.75 2.41 16.55 2.38 15.32 C2.35 14.23 2.33 13.14 2.3 12.01 C2 8.97 1.16 6.81 0 4 C0 2.68 0 1.36 0 0 Z " fill="#0D1117" transform="translate(684,595)"/>
<path d="M0 0 C0.66 0.33 1.32 0.66 2 1 C1.32 1.4 0.65 1.8 -0.05 2.21 C-0.94 2.74 -1.83 3.27 -2.75 3.81 C-3.63 4.33 -4.51 4.86 -5.42 5.39 C-7.72 6.83 -9.84 8.37 -12 10 C-18.53 13.17 -25.91 14.97 -33 13 C-35.52 11.49 -37.69 9.84 -40 8 C-39.67 7.01 -39.34 6.02 -39 5 C-38.11 5.5 -37.23 5.99 -36.31 6.5 C-30 9.16 -22.51 9.32 -16.11 6.91 C-14.45 6.05 -12.82 5.15 -11.22 4.19 C-8.8 2.89 -6.69 2.47 -4 2 C-3.28 1.63 -2.56 1.26 -1.81 0.88 C-1.21 0.59 -0.62 0.3 0 0 Z " fill="#413F3D" transform="translate(579,638)"/>
<path d="M0 0 C0 0.99 0 1.98 0 3 C-8.11 6.76 -16.26 8.46 -25 10 C-25.33 9.01 -25.66 8.02 -26 7 C-26.66 6.67 -27.32 6.34 -28 6 C-26.93 5.75 -25.85 5.49 -24.75 5.23 C-23.31 4.88 -21.87 4.54 -20.44 4.19 C-19.73 4.02 -19.03 3.86 -18.3 3.69 C-14.77 2.82 -11.48 1.84 -8.16 0.34 C-4.78 -1.09 -3.42 -1.14 0 0 Z " fill="#0A0E15" transform="translate(593,626)"/>
<path d="M0 0 C2 0.75 2 0.75 4 3.75 C-2.24 7.33 -6.75 9.42 -14 8.75 C-14 8.09 -14 7.43 -14 6.75 C-14.99 6.75 -15.98 6.75 -17 6.75 C-17 6.09 -17 5.43 -17 4.75 C-16.08 4.47 -15.17 4.2 -14.23 3.91 C-13.04 3.55 -11.85 3.19 -10.62 2.81 C-9.44 2.45 -8.26 2.09 -7.04 1.72 C-1.19 -0.15 -1.19 -0.15 0 0 Z " fill="#2C2A2A" transform="translate(607,619.25)"/>
<path d="M0 0 C1.88 0.88 1.88 0.88 3.88 3.88 C3.88 5.75 3.88 5.75 2.88 7.88 C0.97 9.72 -1.02 11.26 -3.12 12.88 C-5.19 11.25 -5.19 11.25 -7.12 8.88 C-7.12 5.29 -6.78 3.57 -4.31 0.94 C-2.12 -0.12 -2.12 -0.12 0 0 Z " fill="#EEEFE4" transform="translate(654.125,458.125)"/>
<path d="M0 0 C0.64 0.28 1.28 0.55 1.94 0.84 C6.02 2.55 9.52 3.94 13.94 4.5 C17 5 17 5 18.69 7.03 C19.12 7.68 19.56 8.33 20 9 C12.62 10.42 7.49 9.96 1 6 C0.34 5.34 -0.32 4.68 -1 4 C-0.62 1.88 -0.62 1.88 0 0 Z " fill="#12151B" transform="translate(589,949)"/>
<path d="M0 0 C-0.33 0.99 -0.66 1.98 -1 3 C-7.6 3.66 -14.2 4.32 -21 5 C-21 4.01 -21 3.02 -21 2 C-21.66 1.67 -22.32 1.34 -23 1 C-6.18 -3.09 -6.18 -3.09 0 0 Z " fill="#1D1E22" transform="translate(567,633)"/>
<path d="M0 0 C3 0 3 0 4.81 1.56 C6 4 6 4 5.31 7.56 C4 11 4 11 2 14 C0.68 14 -0.64 14 -2 14 C-3.82 8.87 -1.86 4.82 0 0 Z " fill="#181B20" transform="translate(529,523)"/>
<path d="M0 0 C0.66 0 1.32 0 2 0 C2.77 21.44 2.77 21.44 -3 28 C-3.46 18.42 -1.72 9.38 0 0 Z " fill="#C9C8C1" transform="translate(877,323)"/>
<path d="M0 0 C0.66 0.33 1.32 0.66 2 1 C1.32 1.4 0.65 1.8 -0.05 2.21 C-0.94 2.74 -1.83 3.27 -2.75 3.81 C-3.63 4.33 -4.51 4.86 -5.42 5.39 C-7.72 6.83 -9.84 8.37 -12 10 C-16.47 12.18 -16.47 12.18 -20 11 C-20.33 10.34 -20.66 9.68 -21 9 C-19.11 8.01 -17.21 7.04 -15.31 6.06 C-14.26 5.52 -13.2 4.97 -12.11 4.41 C-9.32 3.15 -6.99 2.51 -4 2 C-2.92 1.44 -2.92 1.44 -1.81 0.88 C-1.21 0.59 -0.62 0.3 0 0 Z " fill="#77746F" transform="translate(579,638)"/>
<path d="M0 0 C0.99 0 1.98 0 3 0 C3 7.92 3 15.84 3 24 C2.34 24 1.68 24 1 24 C0.1 15.98 -0.12 8.07 0 0 Z " fill="#CAC8C1" transform="translate(567,882)"/>
<path d="M0 0 C0.66 0 1.32 0 2 0 C1.69 2.88 1.69 2.88 1 6 C-2.27 8.18 -2.94 8.21 -6.67 7.98 C-7.56 7.92 -8.45 7.87 -9.37 7.82 C-10.3 7.76 -11.23 7.69 -12.19 7.62 C-13.13 7.57 -14.07 7.51 -15.04 7.45 C-17.36 7.31 -19.68 7.16 -22 7 C-22 6.34 -22 5.68 -22 5 C-15.4 5 -8.8 5 -2 5 C-1.34 3.35 -0.68 1.7 0 0 Z " fill="#DADAD0" transform="translate(796,512)"/>
<path d="M0 0 C2.38 -0.12 2.38 -0.12 5 0 C7 2 7 2 7 5 C7.66 5.33 8.32 5.66 9 6 C10.37 7.97 11.71 9.97 13 12 C9.25 13.12 9.25 13.12 7 12 C7 11.34 7 10.68 7 10 C6.34 10 5.68 10 5 10 C3.74 7.09 3 5.2 3 2 C2.01 2 1.02 2 0 2 C0 1.34 0 0.68 0 0 Z " fill="#575551" transform="translate(421,99)"/>
<path d="M0 0 C0.99 0 1.98 0 3 0 C5 3 5 3 4.88 4.94 C3.75 7.58 2.11 9.09 0 11 C-1.32 10.34 -2.64 9.68 -4 9 C-2.94 5.6 -1.99 2.99 0 0 Z " fill="#EDEEE3" transform="translate(475,454)"/>
<path d="M0 0 C-0.99 1.98 -1.98 3.96 -3 6 C-3.66 4.68 -4.32 3.36 -5 2 C-6.03 2.35 -7.06 2.7 -8.12 3.06 C-11.98 4 -14.2 3.93 -18 3 C-18 2.01 -18 1.02 -18 0 C-12.19 -1.94 -5.93 -1.22 0 0 Z " fill="#797773" transform="translate(540,86)"/>
<path d="M0 0 C0.33 0.99 0.66 1.98 1 3 C2.98 3 4.96 3 7 3 C7 3.33 7 3.66 7 4 C5.72 3.96 4.44 3.92 3.12 3.88 C0.98 3.76 0.98 3.76 -1 4 C-1.66 4.66 -2.32 5.32 -3 6 C-9 6 -9 6 -10.69 4.62 C-12 3 -12 3 -12 1 C-7.96 0.37 -4.09 -0.12 0 0 Z " fill="#3A3837" transform="translate(567,82)"/>
<path d="M0 0 C6.54 0.63 6.54 0.63 8.88 2.5 C12.23 4.87 15.98 4.75 20 5 C20 5.66 20 6.32 20 7 C11.86 8.44 11.86 8.44 8.44 6.69 C7 5 7 5 7 3 C5.35 3.33 3.7 3.66 2 4 C1.34 2.68 0.68 1.36 0 0 Z " fill="#CECDC5" transform="translate(438,256)"/>
<path d="M0 0 C0.99 0 1.98 0 3 0 C3.82 6.38 4.12 12.57 4 19 C3.34 19 2.68 19 2 19 C1.66 16.4 1.33 13.79 1 11.19 C0.9 10.45 0.81 9.71 0.71 8.95 C0.33 5.95 0 3.03 0 0 Z " fill="#D0CFC7" transform="translate(382,583)"/>
<path d="M0 0 C0.31 0.64 0.62 1.28 0.94 1.94 C1.83 3.94 1.83 3.94 3 5 C3.14 7.67 3.04 10.32 3 13 C2.01 13.5 2.01 13.5 1 14 C1 13.34 1 12.68 1 12 C0.34 12 -0.32 12 -1 12 C-2.07 10.04 -3.07 8.03 -4 6 C-3.67 5.34 -3.34 4.68 -3 4 C-2.34 4.33 -1.68 4.66 -1 5 C-0.67 3.35 -0.34 1.7 0 0 Z " fill="#373534" transform="translate(532,559)"/>
<path d="M0 0 C0.66 0 1.32 0 2 0 C2.98 4.05 3.08 7.84 3 12 C2.01 12.33 1.02 12.66 0 13 C-1 12 -1 12 -1.13 10.04 C-1.13 9.24 -1.13 8.45 -1.12 7.62 C-1.13 6.44 -1.13 6.44 -1.13 5.23 C-1 3 -1 3 0 0 Z " fill="#1C1F23" transform="translate(580,529)"/>
<path d="M0 0 C0.64 0.8 1.28 1.61 1.94 2.44 C3.41 4.28 3.41 4.28 5 6 C5.14 8.67 5.04 11.32 5 14 C4.01 14 3.02 14 2 14 C0.41 9.13 -0.21 5.19 0 0 Z " fill="#312F2F" transform="translate(352,467)"/>
<path d="M0 0 C0.33 0.66 0.66 1.32 1 2 C1.99 2 2.98 2 4 2 C3.89 3.81 3.76 5.63 3.62 7.44 C3.56 8.45 3.49 9.46 3.41 10.5 C3.28 11.32 3.14 12.15 3 13 C2.01 13.5 2.01 13.5 1 14 C-0.38 11.24 -0.1 8.95 -0.06 5.88 C-0.05 4.78 -0.04 3.68 -0.04 2.55 C-0.02 1.71 -0.01 0.87 0 0 Z " fill="#5E5C58" transform="translate(687,619)"/>
<path d="M0 0 C0.66 0.66 1.32 1.32 2 2 C-1.59 6.28 -4.52 7.81 -9.91 9.23 C-12.24 10.09 -13.39 11.14 -15 13 C-14.67 11.02 -14.34 9.04 -14 7 C-12.99 6.87 -12.99 6.87 -11.95 6.74 C-6.05 5.88 -6.05 5.88 -1.38 2.38 C-0.92 1.59 -0.47 0.81 0 0 Z " fill="#C7C5BE" transform="translate(801,671)"/>
<path d="M0 0 C0.33 0.99 0.66 1.98 1 3 C-0.32 3.99 -1.64 4.98 -3 6 C-2.67 7.32 -2.34 8.64 -2 10 C-4.31 9.67 -6.62 9.34 -9 9 C-9 8.34 -9 7.68 -9 7 C-8.34 7 -7.68 7 -7 7 C-6.77 6.4 -6.55 5.8 -6.31 5.19 C-4.66 2.44 -2.8 1.48 0 0 Z " fill="#494848" transform="translate(369,218)"/>
<path d="M0 0 C0.99 0 1.98 0 3 0 C3 0.66 3 1.32 3 2 C5.48 2.99 5.48 2.99 8 4 C8 4.66 8 5.32 8 6 C6.35 6 4.7 6 3 6 C2.67 6.66 2.34 7.32 2 8 C0 6 0 6 -0.12 2.88 C-0.08 1.93 -0.04 0.98 0 0 Z " fill="#E1E1D7" transform="translate(400,233)"/>
<path d="M0 0 C0.33 0.66 0.66 1.32 1 2 C0.45 2.4 -0.11 2.8 -0.68 3.21 C-1.4 3.74 -2.13 4.27 -2.88 4.81 C-3.59 5.33 -4.31 5.86 -5.05 6.39 C-7.23 8.03 -7.23 8.03 -9 11 C-9.33 8.36 -9.66 5.72 -10 3 C-9.01 3.5 -9.01 3.5 -8 4 C-5.98 3.23 -5.98 3.23 -3.88 2.06 C-3.15 1.68 -2.43 1.3 -1.68 0.91 C-1.13 0.61 -0.57 0.31 0 0 Z " fill="#C0C0B9" transform="translate(567,1012)"/>
<path d="M0 0 C3 3 3 3 3.07 5.92 C2.95 7 2.82 8.08 2.69 9.19 C2.57 10.27 2.45 11.36 2.32 12.48 C2.22 13.31 2.11 14.14 2 15 C1.67 13.68 1.34 12.36 1 11 C0.34 11 -0.32 11 -1 11 C-0.67 7.37 -0.34 3.74 0 0 Z " fill="#413F3E" transform="translate(368,522)"/>
<path d="M0 0 C3 0 3 0 4.75 1.62 C6.41 4.78 5.84 6.62 5 10 C4.34 9.01 3.68 8.02 3 7 C2.01 6.67 1.02 6.34 0 6 C-0.75 4.06 -0.75 4.06 -1 2 C-0.67 1.34 -0.34 0.68 0 0 Z " fill="#32302F" transform="translate(529,523)"/>
<path d="M0 0 C-0.33 1.32 -0.66 2.64 -1 4 C-2.32 4.33 -3.64 4.66 -5 5 C-4.67 6.65 -4.34 8.3 -4 10 C-4.66 10 -5.32 10 -6 10 C-6.12 9.22 -6.25 8.43 -6.38 7.62 C-6.79 4.86 -6.79 4.86 -9 3 C-3.38 0 -3.38 0 0 0 Z " fill="#3A3837" transform="translate(522,87)"/>
<path d="M0 0 C3.25 1.04 4.57 2.59 6.25 5.44 C8 9 8 9 8 12 C4.34 10.78 4.08 9.87 2.31 6.56 C1.88 5.76 1.44 4.96 0.99 4.13 C0 2 0 2 0 0 Z " fill="#C1C0B8" transform="translate(1013,1079)"/>
<path d="M0 0 C0.66 0 1.32 0 2 0 C1.86 1.63 1.71 3.25 1.56 4.88 C1.48 5.78 1.4 6.68 1.32 7.62 C1 10 1 10 0 12 C-0.99 12 -1.98 12 -3 12 C-2.01 8.04 -1.02 4.08 0 0 Z " fill="#CDCDC4" transform="translate(569,924)"/>
<path d="M0 0 C2 3.01 3.03 5.59 4.19 9 C4.55 10.05 4.92 11.1 5.29 12.19 C6 15 6 15 5 18 C5 17.34 5 16.68 5 16 C4.34 16 3.68 16 3 16 C-0.44 5.63 -0.44 5.63 0 0 Z " fill="#3B3938" transform="translate(783,812)"/>
<path d="M0 0 C1.32 0.66 2.64 1.32 4 2 C-1.14 7.57 -1.14 7.57 -5 8 C-5.33 7.34 -5.66 6.68 -6 6 C-5.01 5.67 -4.02 5.34 -3 5 C-1.85 3.03 -1.85 3.03 -1 1 C-0.67 0.67 -0.34 0.34 0 0 Z " fill="#32302F" transform="translate(821,476)"/>
<path d="M0 0 C0.29 0.62 0.58 1.24 0.88 1.88 C1.94 4.13 1.94 4.13 4 6 C3.01 7.49 3.01 7.49 2 9 C0.68 8.67 -0.64 8.34 -2 8 C-2.69 6.25 -2.69 6.25 -3 4 C-1.56 1.75 -1.56 1.75 0 0 Z " fill="#191C21" transform="translate(825,469)"/>
<path d="M0 0 C2.88 1.29 4.87 2.66 7 5 C6.34 6.32 5.68 7.64 5 9 C4.01 8.67 3.02 8.34 2 8 C0.55 5.1 0 3.26 0 0 Z " fill="#53514F" transform="translate(655,454)"/>
<path d="M0 0 C0.99 0.33 1.98 0.66 3 1 C3 1.66 3 2.32 3 3 C3.99 3 4.98 3 6 3 C6 3.66 6 4.32 6 5 C6.66 5 7.32 5 8 5 C7.34 6.32 6.68 7.64 6 9 C5.01 9 4.02 9 3 9 C2.01 6.03 1.02 3.06 0 0 Z " fill="#383635" transform="translate(479,376)"/>
<path d="M0 0 C3.78 1.81 7.37 3.91 11 6 C11 6.66 11 7.32 11 8 C10.24 7.67 9.47 7.34 8.69 7 C6.01 5.83 6.01 5.83 3 6 C2.34 6 1.68 6 1 6 C1 4.68 1 3.36 1 2 C0.34 1.67 -0.32 1.34 -1 1 C-0.67 0.67 -0.34 0.34 0 0 Z " fill="#363434" transform="translate(428,248)"/>
<path d="M0 0 C2.5 2.94 3.61 5.15 4 9 C3.56 11.31 3.56 11.31 3 13 C2.34 13 1.68 13 1 13 C0.86 11.93 0.71 10.86 0.56 9.75 C0.11 6.22 0.11 6.22 -0.62 3.69 C-1 2 -1 2 0 0 Z " fill="#29282A" transform="translate(876,540)"/>
<path d="M0 0 C0.66 0 1.32 0 2 0 C1.72 1.44 1.42 2.88 1.12 4.31 C0.96 5.11 0.8 5.91 0.63 6.74 C0 9 0 9 -2 12 C-2.66 11.01 -3.32 10.02 -4 9 C-3.53 8.07 -3.05 7.14 -2.56 6.19 C-0.96 3.09 -0.96 3.09 0 0 Z " fill="#908E8A" transform="translate(404,1207)"/>
<path d="M0 0 C3.83 1.56 6.17 4.03 9 7 C9.6 7.6 10.2 8.2 10.81 8.81 C11.2 9.2 11.6 9.6 12 10 C11.67 10.66 11.34 11.32 11 12 C9.53 10.95 8.08 9.89 6.62 8.81 C5.81 8.22 5 7.63 4.16 7.02 C1.79 4.8 0.96 3.07 0 0 Z " fill="#C6C5BD" transform="translate(947,983)"/>
<path d="M0 0 C0.99 0.33 1.98 0.66 3 1 C3 1.66 3 2.32 3 3 C1.38 3.84 -0.25 4.67 -1.88 5.5 C-3.23 6.2 -3.23 6.2 -4.62 6.91 C-7 8 -7 8 -9 8 C-9 7.34 -9 6.68 -9 6 C-7.14 4.46 -7.14 4.46 -4.69 2.81 C-3.89 2.26 -3.09 1.71 -2.26 1.14 C-1.14 0.58 -1.14 0.58 0 0 Z " fill="#2F2D2D" transform="translate(837,430)"/>
<path d="M0 0 C3.3 0 6.6 0 10 0 C10 0.99 10 1.98 10 3 C3.38 4.25 3.38 4.25 0 2 C0 1.34 0 0.68 0 0 Z " fill="#C7C6BE" transform="translate(645,382)"/>
<path d="M0 0 C-4.75 4 -4.75 4 -7 4 C-7 4.66 -7 5.32 -7 6 C-8.65 6.66 -10.3 7.32 -12 8 C-10.48 4.2 -9.49 2.32 -6 0.06 C-3 -1 -3 -1 0 0 Z " fill="#464443" transform="translate(447,102)"/>
<path d="M0 0 C0.66 0 1.32 0 2 0 C2 2.31 2 4.62 2 7 C0.02 7.99 0.02 7.99 -2 9 C-2.25 3.38 -2.25 3.38 0 0 Z " fill="#BBB9B3" transform="translate(647,626)"/>
<path d="M0 0 C2 1.56 2 1.56 4 4 C4.25 7.75 4.25 7.75 4 11 C3.34 11 2.68 11 2 11 C0.58 7.18 -0.24 4.09 0 0 Z " fill="#C8C7BF" transform="translate(368,497)"/>
<path d="M0 0 C-1.48 4.7 -1.48 4.7 -3.94 6.12 C-4.62 6.41 -5.3 6.7 -6 7 C-7.71 8.54 -7.71 8.54 -9 10 C-9.66 9.67 -10.32 9.34 -11 9 C-3.8 0 -3.8 0 0 0 Z " fill="#E1E1D7" transform="translate(806,667)"/>
<path d="M0 0 C0.99 0.33 1.98 0.66 3 1 C2.31 2.94 2.31 2.94 1 5 C-1.62 5.75 -1.62 5.75 -4 6 C-4.33 5.01 -4.66 4.02 -5 3 C-2.69 1.44 -2.69 1.44 0 0 Z " fill="#73706C" transform="translate(563,644)"/>
<path d="M0 0 C0.66 0.33 1.32 0.66 2 1 C1.5 4.69 0.9 6.6 -2 9 C-2.69 6.19 -2.69 6.19 -3 3 C-1.56 1.12 -1.56 1.12 0 0 Z " fill="#2E2C2C" transform="translate(358,445)"/>
</svg>
